<?xml version="1.0" encoding="UTF-8"?>
<svg id="Capa_2" data-name="Capa 2" xmlns="http://www.w3.org/2000/svg" viewBox="0 0 446.63 459.89">
  <defs>
    <style>
      .cls-1 {
        fill: #df040b;
      }

      .cls-2 {
        fill: #fff;
      }
    </style>
  </defs>
  <path class="cls-2" d="m439.63,159.72c-9.2-12.13-9.73-24.07-5-38.05,3.43-10.13,5.47-21.18,5.71-31.87.73-32.88-15.64-56.13-42.87-72.43-2.48,11.81-4.76,23.25-7.32,34.63-1.87,8.32-1.62,20.88-6.74,23.8-7.2,4.11-18.5,1.05-28.04,1.05-.91,0-1.87-.19-2.73.03-11.53,2.88-16.96-3.06-21.52-12.92-11.74-25.38-29.28-45.8-56.42-55.18-27.39-9.47-55.1-5.9-81.74,3.36-9.69,3.37-17.16,3.83-26.33-.76C147,1.55,125.69-1.32,103.97.53c-7.48.64-15.54,2.11-18.35,11.62-2.62,8.86,1.34,14.66,7.75,19.62,8.21,6.36,16.53,12.56,25.55,19.39-14.5,7.84-26.96,16.44-39.09,25.62-28.04,21.23-49.81,46.4-61.32,80.79-6.07,18.13-.91,40.01-17.73,54.66-2.25,1.96.97,3.87,2.12,5.59,4.62,6.88,6.08,14.89,8.36,22.64,16.02,54.57,44.8,98.02,102.66,115.06,6.16,1.81,4.3,5.63,3.82,7.99-1.09,5.34-2.81,10.97-5.82,15.44-14.55,21.61-30,42.62-44.18,64.46-2.9,4.46-10.3,8.31-6.22,16.49,19.48-13.03,38.75-26.15,58.26-38.91,23.21-15.17,46.94-16.23,71.41-2.51,4.06,2.28,7.44,4.54,5.93,8.81-3.29,9.32,3.63,5.33,5.21,3.64,5.42-5.82,8.74-3.48,14.72.03,9.88,5.79,20.01,12.06,33.27,15.38-4.47-11.42-11.95-18.36-17.33-26.65-1.41-2.16-3.63-5.01,2.15-8.04,13.35-6.99,25.24-3.44,37.42,1.54,17.47,7.15,34.82,14.61,52.71,22.14.7-8.36-7.05-11.81-7.86-19.21,18.13,4.36,35.38,5.15,50.62-6.02,23.94-17.54,31.69-48.81,3.16-70.62-3.59-2.74-5.01-2.83-8.85-.11-24.48,17.4-36.38,7.05-47.22-13.69,8.83.19,17.22,1.55,25.81-2.31,25.21-11.33,37.09-48.74,29.42-71.54-3.84-11.43-2.92-20.39,4.44-29.64,5.65-7.1,10.3-14.99,15.46-22.49,3.72-5.41,5.49-9.05,14.25-3.21,14.78,9.84,24.97,7.8,34.96-2.38,9.28-9.46,9.77-21.74.17-34.38ZM120.68,289.36c-57.84-30.72-55.5-130.93,0-168.04v168.04Zm70.83-118.25c.06-1.53.37-5.97,2.54-6.99,1.14-.54,2.77-.21,5.08,1.26,6,3.8,10.83.91,16.82-2.12v55.23c-1.37.26-2.27.64-3.11.55-8.27-.91-14.76-6.16-16.07-7.52-6.59-6.87-6.15-18.05-5.26-40.4Zm19.28,218.94c-7.28-8.84-12.55-16.54-15.83-26.61,7.24,2.84,17.28-4.53,20.78,4.63,2.2,5.77-5.3,12.75-4.95,21.97Zm2.66-83.5c-.44-.06-.9-.01-1.35.01q-19.87,1.1-20.53-29.27c12.51,3.28,24.96,6.04,27.02,22.06.61,4.76,1.26,8.09-5.14,7.2Zm22.02-226.86c-5.6.47-5.43-2.62-5.47-6.52-.07-6.01,3.53-4.9,7.08-3.97,6.24,1.63,11.5,5.16,19.11,10.37-8.36,0-14.58-.4-20.72.12Zm78.3,207.05c-4.51,3.91-5.32,9.88-8.85,14.38-2.12-2.96-.97-6.6-3.43-9.86-5.87-7.75-.53-10.95,6.78-11.94,2.03-.27,5.17.03,6.1,1.3.94,1.3.6,5.07-.6,6.11Zm63.3-122.54c-11.36-.96-20.15,4.15-30.11,12.27,2.71-17.87,15.18-23.76,26.36-30.7,3.29-2.04,5.19,1.08,6.3,3.11,2.39,4.4,5.47,9.16,5.56,13.82.06,3.53-5.39,1.73-8.11,1.5Z"/>
  <path class="cls-1" d="m347.6,131.52c-1.59,6.53,6.15,5.19,7.97,10.03-16.52,8.34-21.1,25.77-26.49,41.07-6.86,19.46-19.63,30.68-37.14,38.57-6.55,2.95-12.56,3.9-15.44-4.89,0-.74-.02-1.47-.03-2.21-3.89-16.73,8.85-28.37,13.16-42.59,5.79-19.05,12.51-37.84,4.4-57.86-1.24-5.41-4.52-9.92-6.6-14.96-4.97-18.96-20.37-29.11-35.87-36.35-20.99-9.8-43.46-16.71-67.79-10.49-5.84,1.49-6.03,3.56-5.73,7.84,3.72,52.89,2.6,105.86,2.63,158.82,0,4.87,1.62,5.35,5.96,6.24,32.24,6.61,61.86,18.08,85.46,42.8,16.32,17.1,19.61,39.65,29.12,59.58,9.1,19.09,23.09,36.52,44.3,34.32,5.55-.57,9.9-2.55,14.31-5.47,7.46-4.93,12.63-1.67,14.04,5.93,2.09,11.27,3.54,22.72-5.82,32.42-9.86,10.22-21.58,15.54-35.43,12.87-22.3-4.29-34.83-18.41-42.91-39.93-8.59-22.89-22.41-43.59-38.26-62.6-12.39-14.87-26.7-27.24-44.21-35.72-1.52-.74-3.08-1.41-4.65-2.04-20-7.99-21.78-6.81-21.78,14.49,0,5.47,0,10.93,0,16.4q0,18.11-18.13,16.97c-21.1-1.33-31.87-11.86-30.95-32.64,3.17-71.6,2.15-143.23,2.9-214.84.15-14.2-1.55-25.49-15.66-31.86-2.71-1.23-5.63-3.67-7.13-5.41-4.06-4.7-15.45-4.49-12.45-13.03,2.39-6.8,10.93-2.55,16.59-2.83,19.07-.94,37.23,2.22,53.49,13.47,3.99,2.76,8.7,3.58,14.66,1.33,19.93-7.52,40.24-13.4,62.19-12.46,29.55,1.26,50.04,15.75,65.95,39.62,14.18,21.27,20.16,45.8,29.64,68.94,1.28,3.14,2.44,5.55,5.74,6.51l-.03-.03Z"/>
  <path class="cls-1" d="m127.65,60.13c.71,1.49,1.06,1.88,1.08,2.29,1.04,21.41,4.79,44.03-23.14,52.73-35.21,34.95-47.98,77.2-35.75,124.84,11.48,44.73,43.04,69.06,88.16,77.88,17.61,3.44,34.92,1.52,52.35,2.12,6.99.24,8.96,1.63,8.95,8.88-.04,22.29.37,23.33-22.43,23.95-42.39,1.15-83.61-2.88-119.53-29.62-21.24-15.81-33.61-37.38-44.26-60.49-6.59-14.31-7.68-30.64-15.73-44.42-4.22-7.24,4.14-9.71,5.33-15.22,2.73-12.61,4.11-25.45,7.24-38.07,7.89-31.83,28.31-54.32,51.93-74.28,13.72-11.59,28.62-22.22,45.8-30.59Z"/>
  <path class="cls-1" d="m287.44,98.69c1.41,4.75,6,8.23,5.5,13.75.39,9.36,2.46,19.98-13.29,16.49-3.54-.78-5.95.52-5.89,4.99.37,27.05-.41,54.1.53,81.15.02.49,1.41.89,2.25,1.28l-.03-.04c-2.01,10.77,1.39,16.22,13.24,13.75,2.18-.45,4.6-.39,6.81-.01,18.73,3.24,29.43-3.46,38.08-21.66,7.32-15.41,22.13-27.21,40.44-32.08,4.01-1.07,6.48-1.16,9.48,1.65,4.36,4.08-.63,7.2-1.77,9.12-6.64,11.17-14.53,21.59-21.59,32.53-6.27,9.73-5.33,19.68-3.47,31.18,3.89,24.16,1.41,50.83-25.08,61.78-3.99,1.65-7.49,1.92-11.36,2.19-8.18.58-8.05-2.97-4.55-8.7,4.03-6.6,9.04-13.04,11.01-20.26,1.04-3.79,7.28-8.82.4-14-5.52-4.15-11.82-7.93-17.76-5.47-17.28,7.14-30.44,5.01-42.88-10.32-6.48-7.98-17-14.64-26.93-17.32-10.19-2.75-10.67-7.74-10.63-15.63.16-28.7.11-57.4.04-86.1-.03-14.88,3.41-30.69-12.78-41.53.72-.83,1.44-1.67,2.17-2.5,19.74,0,39.49-.24,59.22.26,2.99.08,5.89,3.59,8.83,5.51Z"/>
  <path class="cls-1" d="m347.64,131.56c-2.32-13.94-9.09-26.38-14.17-41.04,14.73,0,28.87-1.65,42.43.42,16.66,2.55,22.41-6.25,23.43-19.38.81-10.38,5.1-19.58,6.17-30.63,21.3,17.51,25.17,39.35,19.56,63.68-5.5,23.87-13.4,47.75,8.7,67.98,2.11,1.93,1.24,3.51-.09,5.76-2.91,4.91-4.79,10.28-11.95,10.7-7.3.43-11.44-2.46-14.06-9.31-4.09-10.67-9.2-20.94-13.41-31.57-4.28-10.8-8.89-19.76-23.48-16.89-7.45,1.46-15.42.25-23.16.24l.03.03Z"/>
  <path class="cls-1" d="m230.38,292.66c22.82,21.38,43.95,39.67,40.71,71.9-1.04,10.36,8.13,15.87,12.46,23.55,3.06,5.43,5.52,11.09,10.89,18.7-26.55-8.81-50.58-20.08-76.43-2.03,18.17-34.91,10.59-72.14,12.37-112.12Z"/>
  <path class="cls-1" d="m183.54,95.97c0-10.43.77-20.93-.23-31.27-.88-9.08,2.73-10.54,10.54-9.89,7.64.64,17.01-2.69,22.69.67,7.47,4.42-1.43,13.02-.62,20.41,1.6,14.78.26,29.63,5.63,44.26,2.73,7.44,1.03,16.94-3.44,24.17-3.74,6.05-9.29,11.66-17.8,9.15-10.86-3.19-15.58-12-16.47-22.16-1.03-11.7-.24-23.56-.24-35.35-.02,0-.03,0-.05,0Z"/>
  <path class="cls-1" d="m211.69,411.93c-19.75-6.05-35.81-15.76-55.2-15.48-19.06.27-34.32,9.59-54.41,19.2,14.65-18.98,24.9-35.87,29.24-55.27,1.33-5.96,4.83-5.48,7.33-4.35,8.17,3.7,16.64,2.83,24.91,2.32,10.29-.63,17.65.92,20.64,12.72,4,15.76,17.92,25.36,27.49,40.87Z"/>
</svg>