<?xml version="1.0" encoding="UTF-8"?>
<svg id="Capa_2" data-name="Capa 2" xmlns="http://www.w3.org/2000/svg" viewBox="0 0 415.29 440.15">
  <defs>
    <style>
      .cls-1, .cls-2 {
        fill: #fff;
      }

      .cls-3 {
        fill: #de0a14;
      }

      .cls-2 {
        stroke: #000;
        stroke-miterlimit: 10;
        stroke-width: 5.59px;
      }
    </style>
  </defs>
  <g>
    <g>
      <path class="cls-1" d="m378.57,125.42c2.77-8.2,4.42-17.13,4.62-25.78.59-26.6-12.65-45.4-34.68-58.59-2.01,9.55-3.85,18.8-5.92,28.01-1.51,6.73-1.31,16.89-5.46,19.25-5.82,3.33-14.96.85-22.68.85-.74,0-1.51-.15-2.21.02-9.33,2.33-13.72-2.47-17.41-10.45-9.5-20.53-23.68-37.04-45.63-44.64-22.15-7.66-44.57-4.77-66.11,2.72-7.84,2.73-13.88,3.1-21.3-.61-15.88-7.95-33.12-10.27-50.68-8.77-6.05.51-12.57,1.7-14.84,9.4-2.12,7.17,1.09,11.86,6.27,15.87,6.64,5.14,13.37,10.16,20.66,15.68-11.73,6.34-21.81,13.3-31.62,20.72-22.68,17.17-40.29,37.53-49.6,65.35-4.91,14.66-.74,32.37-14.34,44.21-1.82,1.58.78,3.13,1.72,4.52,3.74,5.56,4.92,12.04,6.76,18.31,12.96,44.14,36.24,79.28,83.04,93.06,4.99,1.47,3.48,4.56,3.09,6.46-.88,4.32-2.27,8.88-4.71,12.49-11.77,17.48-24.26,34.47-35.73,52.14-2.35,3.61-8.33,6.72-5.03,13.34,15.76-10.54,31.34-21.15,47.12-31.47,18.77-12.27,37.97-13.13,57.76-2.03,3.28,1.84,6.02,3.67,4.8,7.13-2.66,7.54,2.94,4.31,4.21,2.94,4.38-4.71,7.07-2.81,11.91.03,7.99,4.69,16.19,9.76,26.91,12.44-3.62-9.24-9.66-14.85-14.02-21.55-1.14-1.75-2.93-4.05,1.74-6.5,10.8-5.66,20.41-2.78,30.27,1.25,14.13,5.78,28.16,11.81,42.64,17.91.57-6.76-5.7-9.55-6.36-15.54,14.67,3.53,28.62,4.16,40.94-4.87,19.36-14.19,25.63-39.48,2.55-57.12-2.9-2.22-4.06-2.29-7.16-.09-19.8,14.07-29.43,5.7-38.2-11.07,7.14.15,13.93,1.25,20.88-1.87,20.39-9.16,30-39.42,23.79-57.87-3.11-9.25-2.37-16.49,3.59-23.97,4.57-5.74,8.33-12.13,12.5-18.19,3.01-4.37,4.44-7.32,11.52-2.6,11.95,7.96,20.2,6.31,28.28-1.92,7.51-7.65,7.9-17.58.14-27.81-7.44-9.81-7.87-19.47-4.04-30.78Zm-253.94,135.64c-46.79-24.85-44.89-105.9,0-135.92v135.92Zm57.29-95.64c.05-1.23.3-4.83,2.05-5.65.92-.43,2.24-.17,4.11,1.02,4.85,3.07,8.76.73,13.6-1.72v44.67c-1.11.21-1.83.52-2.52.45-6.69-.73-11.94-4.98-13-6.09-5.33-5.56-4.97-14.6-4.25-32.68Zm15.59,177.09c-5.89-7.15-10.15-13.38-12.8-21.52,5.85,2.3,13.98-3.67,16.81,3.75,1.78,4.67-4.29,10.31-4,17.77Zm2.15-67.54c-.36-.05-.73-.01-1.09,0q-16.07.89-16.6-23.68c10.12,2.65,20.19,4.89,21.85,17.84.5,3.85,1.02,6.54-4.16,5.82Zm17.81-183.5c-4.53.38-4.39-2.12-4.43-5.27-.05-4.86,2.85-3.96,5.73-3.21,5.04,1.32,9.3,4.17,15.46,8.39-6.76,0-11.79-.32-16.76.1Zm63.33,167.47c-3.65,3.16-4.3,7.99-7.15,11.63-1.72-2.4-.79-5.34-2.77-7.97-4.74-6.27-.43-8.86,5.48-9.66,1.64-.22,4.18.02,4.93,1.05.76,1.05.49,4.1-.49,4.94Zm51.2-99.11c-9.19-.78-16.3,3.36-24.35,9.92,2.19-14.45,12.28-19.21,21.32-24.84,2.66-1.65,4.2.87,5.1,2.52,1.93,3.56,4.43,7.41,4.49,11.18.05,2.85-4.36,1.4-6.56,1.22Z"/>
      <path class="cls-1" d="m76.78,414.83c-1.36,0-2.72-.17-4.06-.53-4.4-1.17-8.08-4.16-10.11-8.23-4.91-9.83-3.09-19.44,5.4-28.56.24-.26.49-.51.7-.76,6.79-10.43,13.96-20.7,20.9-30.63,4.61-6.59,9.36-13.4,13.92-20.14-40.4-15.66-67.48-48.49-82.61-100.01-.41-1.39-.78-2.78-1.16-4.18-.99-3.67-1.86-6.89-3.16-9.14-1.76-1.88-5.75-6.57-5.41-13.62.22-4.73,2.37-9.1,6.05-12.3,4.2-3.65,4.98-8.87,6.11-18.54.67-5.74,1.43-12.24,3.61-18.75,9.56-28.57,27.05-51.75,55.06-72.95,4.6-3.48,8.93-6.61,13.13-9.47-.77-.59-1.54-1.19-2.31-1.78-15.2-11.78-13.89-25.66-11.76-32.88,3.67-12.42,13.32-19.38,28.68-20.69,21.76-1.85,41.65,1.65,59.11,10.39,2.35,1.18,3.71,1.66,9.01-.18,28.31-9.85,53.33-10.74,76.49-2.73,23.96,8.29,42.41,26.11,54.83,52.95.26.57.49,1.04.7,1.43,2.16-.35,3.89-.24,4.82-.19,2.93.01,5.8.28,8.34.51.81.07,1.75.16,2.7.23.03-.25.07-.49.09-.71.33-2.53.68-5.14,1.27-7.76,1.41-6.29,2.7-12.54,4.07-19.16.59-2.86,1.19-5.73,1.8-8.64,1.05-5.01,4.46-9.2,9.15-11.25,4.69-2.05,10.08-1.71,14.48.92,28.4,17,43.05,42.08,42.38,72.52-.23,10.08-2.11,20.63-5.45,30.5h0c-2.76,8.15-1.61,11.83,1.66,16.13,12.4,16.35,11.84,34.92-1.46,48.47-8.79,8.96-22.85,16.97-41.68,7.85-.09.14-.18.27-.27.41-2.83,4.34-5.77,8.82-9.27,13.22-1.91,2.4-2.75,3.78-.97,9.06,5.93,17.65,1.72,42.16-11.1,59.7,2.14.83,4.27,2.05,6.39,3.66,13.71,10.48,21.18,24.59,21.03,39.73-.17,16.18-8.85,31.77-23.83,42.74-9.28,6.8-19.07,9.55-28.31,10.18-.74,4.56-3.44,8.59-7.43,11.01-4.34,2.63-9.68,3.01-14.35,1.05-4.34-1.83-8.65-3.65-12.92-5.47-10.16-4.3-19.75-8.37-29.56-12.38-.09-.04-.17-.07-.26-.11,1.08,1.99,2.1,4.14,3.02,6.48,2.16,5.52,1.06,11.78-2.85,16.23-3.91,4.45-9.98,6.34-15.73,4.9-11.89-2.97-20.89-8.15-28.83-12.81-5.56,3.09-12.58,3.94-18.69.23-1.54-.93-7.5-5.07-8.14-13.51-12.97-6-24.67-4.87-37.43,3.48-10.85,7.1-21.85,14.49-32.49,21.65-4.82,3.24-9.65,6.49-14.5,9.73-2.63,1.76-5.7,2.67-8.8,2.67Zm153.04-73.89c9.92,0,18.23,3.4,23.66,5.62,5.89,2.41,11.83,4.89,17.72,7.38.62-.8,1.32-1.55,2.09-2.24,3.87-3.41,9.16-4.72,14.17-3.51,13.27,3.19,21.35,2.54,27.88-2.24,6.76-4.95,10.82-11.5,10.88-17.52.03-3.36-1.23-6.6-3.76-9.69-9.64,5.35-18.58,6.95-27.17,4.88-14.11-3.39-22.07-15.6-27.43-25.85-2.09-4-2.35-8.66-.82-12.81-2.48-1.14-4.66-2.91-6.28-5.19-2.62-3.67-3.45-7.26-3.86-9.53-5.6-8.66-3.98-16.01-2.42-19.77,2.13-5.11,7.28-11.55,19.74-13.23,6.36-.86,14.91.64,19.85,7.42,5.5,7.57,4.33,19.41-2.39,25.76-.23.43-.59,1.19-.86,1.78-.37.8-.79,1.7-1.29,2.68,3.06.09,5.12-.03,6.75-.76,12.14-5.46,19.12-26.93,15.28-38.38-4.94-14.7-2.91-27.42,6.21-38.88,2.57-3.24,4.98-6.92,7.53-10.82,1.42-2.17,2.84-4.35,4.31-6.49l.42-.61c.76-1.12,1.53-2.13,2.31-3.06-.54-.08-1.02-.16-1.43-.23l-.47-.08c-2.91-.19-5.98.87-12.81,6.43-5.07,4.14-12.17,4.72-17.85,1.48-5.69-3.25-8.79-9.65-7.81-16.12,3.09-20.43,17.01-28.87,26.21-34.44.8-.49,1.61-.98,2.41-1.47,4.51-2.8,9.72-3.63,14.66-2.32,5.33,1.41,9.61,5.02,12.71,10.74.24.45.5.91.76,1.37,2.33,4.17,5.53,9.88,5.65,17.09.06,3.49-.88,6.83-2.66,9.67,4.41.77,8.34,2.82,11.24,4.76,3.58,2.38,5.17,2.52,5.29,2.53,0-.02.96-.38,2.91-2.36,1.29-1.31,2.4-2.44-1.17-7.15-10.14-13.37-12.24-28.23-6.43-45.42h0c2.32-6.86,3.63-14.15,3.78-21.06.25-11.26-2.6-20.8-8.81-29.04-.17.76-.33,1.52-.51,2.28-.28,1.24-.53,3.15-.78,4.98-1.06,8.01-2.51,18.97-12.28,24.55-8.41,4.8-17.48,3.97-24.78,3.31-2.14-.19-4.15-.38-5.74-.38-.09.02-.26,0-.39,0-10.71,2.08-24.57-.05-33.61-19.61-8.79-19-20.71-30.88-36.44-36.32-16.17-5.59-34.4-4.71-55.73,2.71-8.46,2.94-19.91,5.43-33.59-1.41-11.3-5.66-24.35-8.13-38.83-7.39,3.38,2.58,6.81,5.17,10.34,7.83l6.55,4.95c4.29,3.25,6.64,8.46,6.23,13.83-.41,5.37-3.52,10.16-8.26,12.72-9.54,5.16-18.67,11.15-29.59,19.42-22.67,17.17-36.7,35.51-44.14,57.75-1.14,3.4-1.65,7.77-2.19,12.39-1,8.51-2.27,19.37-8.58,29.27,1.95,4.39,3.11,8.69,4.11,12.39.32,1.17.63,2.35.98,3.52,13.56,46.21,35.87,71.6,72.32,82.33,9.47,2.79,17.51,11.55,14.14,24.83l-.03.14c-1.5,7.31-3.81,13.21-7.05,18.02-1.24,1.83-2.48,3.66-3.73,5.49,17.78-7.89,36.31-7.94,54.5-.11-4.62-6.1-8.95-13.07-11.81-21.86-1.9-5.83-.26-12.22,4.2-16.42,4-3.77,9.62-5.17,14.85-3.8.4-.05.89-.11,1.29-.16,16.65-2.21,23.49,6.17,26.32,13.59,3.2,8.39.09,15.61-1.77,19.93-.43.99-1.06,2.47-1.2,3.1.02.76-.02,1.5-.1,2.24,5.84-2.49,11.43-3.41,16.59-3.41Zm61.35-70.04h0s0,0,.01,0c0,0,0,0-.01,0Zm-13.34-2.16h0Zm-1.41-.16c.56.09,1.11.13,1.64.09,1.24-.45,3.61-2.04,5.16-4.95l-6.8,4.86Zm60.52-124.03h.02-.02Zm41.63-19.13h.02-.02Zm-70.77-51.48h0Zm-115.5,217.1c-6.51,0-12.61-1.03-17.89-5.92-7.7-7.13-7.9-16.49-8.28-33.49-.11-4.97,2.12-9.7,6.02-12.78,3.9-3.08,9.03-4.14,13.83-2.89l.91.24c10.36,2.71,29.65,7.74,32.63,30.9l.05.36c.46,3.51,1.52,11.72-4.97,18.15-2.81,2.79-7.77,5.87-15.67,5.18-2.25.12-4.47.24-6.64.24Zm9.54-31.77h.02-.02Zm-77.21,17.62c-2.55,0-5.1-.61-7.43-1.85-25.05-13.3-40.99-40.79-42.65-73.54-1.84-36.39,14.36-71.53,41.27-89.53,4.86-3.25,11.11-3.56,16.26-.8,5.15,2.75,8.37,8.12,8.37,13.97v135.92c0,5.56-2.91,10.71-7.68,13.57-2.51,1.51-5.33,2.26-8.16,2.26Zm-15.84-101.96c-2.12,7.89-3.05,16.36-2.61,24.97.29,5.69,1.18,11.12,2.61,16.16v-41.13Zm90.59,45.09c-.61,0-1.25-.03-1.93-.1-10.83-1.19-19.36-7.39-22.7-10.86-10-10.42-9.47-23.89-8.65-44.28h0c.5-12.53,7.2-17.51,11.15-19.36,3.02-1.41,8.8-3.05,15.98.18.14-.07.28-.14.41-.21l.9-.45c4.9-2.49,10.75-2.24,15.44.64,4.69,2.88,7.54,7.99,7.54,13.49v44.67c0,7.62-5.43,14.16-12.92,15.56l-.09.03c-.98.25-2.79.7-5.13.7Zm-17.46-54.61h.02-.02Zm34.73-58.08c-6.47,0-10.75-2.58-13.27-4.88-6.07-5.53-6.14-12.73-6.17-15.8v-.29c-.1-9.02,4.42-13.91,7.13-16.02,7.23-5.64,15.22-3.53,18.23-2.74l.21.06c7.84,2.05,13.93,6.22,20.38,10.63,5.73,3.92,8.24,11.12,6.19,17.75-2.05,6.63-8.19,11.15-15.13,11.15-2.27,0-4.36-.03-6.32-.07-3.65-.06-6.54-.11-9.11.11h0c-.74.06-1.46.09-2.16.09Zm.83-15.87h.02-.02Z"/>
    </g>
    <g>
      <path class="cls-2" d="m76.78,407.37c-.72,0-1.44-.09-2.15-.28-2.33-.62-4.28-2.2-5.35-4.36-5.08-10.19,1.41-17.17,4.19-20.15.48-.51,1.13-1.22,1.31-1.5,6.77-10.43,13.98-20.74,20.94-30.71,4.92-7.04,10.01-14.33,14.87-21.55,1.17-1.73,2.15-4.16,2.93-7.23-42.23-13.65-70.15-45.64-85.45-97.74-.39-1.34-.76-2.68-1.12-4.02-1.18-4.37-2.3-8.51-4.41-11.76-.07-.07-.13-.14-.2-.21-1.17-1.23-3.91-4.12-3.71-8.49.13-2.69,1.37-5.19,3.5-7.04,6.24-5.43,7.34-12.39,8.62-23.29.66-5.64,1.34-11.48,3.28-17.26,9.06-27.08,25.74-49.12,52.49-69.37,7.75-5.86,14.71-10.7,21.55-14.95-3.63-2.74-7.16-5.43-10.67-8.14-8.92-6.91-12.01-15.27-9.17-24.87,4.09-13.84,17.23-14.95,22.17-15.37,20.38-1.73,38.92,1.51,55.15,9.63,4.76,2.39,8.36,2.43,14.79.19,26.67-9.28,50.09-10.17,71.61-2.73,21.97,7.6,38.96,24.1,50.5,49.04,3.22,6.97,4.65,6.62,7.77,5.84,1.74-.43,3.25-.34,4.06-.28h.24s.02.01.03.01c2.61,0,5.27.24,7.85.48,3.35.3,7.41.67,9.63.13.52-1.68.95-4.96,1.23-7.05.31-2.37.64-4.81,1.15-7.11,1.42-6.35,2.72-12.62,4.1-19.27.59-2.85,1.19-5.73,1.79-8.63.56-2.65,2.36-4.87,4.85-5.96,2.48-1.08,5.34-.9,7.66.49,26.33,15.77,39.37,37.96,38.75,65.96-.21,9.34-1.95,19.12-5.06,28.28h0c-3.26,9.64-2.48,16.09,2.78,23.02,10.15,13.39,9.84,27.87-.84,38.75-11.5,11.73-24.17,12.76-38.71,3.16l-.17.24c-1.36,1.97-2.67,3.98-3.98,5.99-2.75,4.2-5.58,8.55-8.87,12.68-3.95,4.96-4.52,9.17-2.2,16.08,7.34,21.83-3.65,57.11-28.3,68.19-2.79,1.26-5.52,2-8.17,2.42.98.74,1.95,1.22,2.9,1.44,4.13.99,10.06-2.39,14.29-5.4,6.09-4.32,11.21-4.24,17.1.26,11.8,9.02,18.23,21,18.1,33.73-.14,13.82-7.72,27.23-20.79,36.81-10.33,7.57-21.35,9.36-31.56,8.83.38,1.65.55,3.48.37,5.52-.23,2.68-1.72,5.08-4.01,6.47-2.3,1.39-5.12,1.6-7.59.55-4.31-1.82-8.58-3.63-12.83-5.43-10.21-4.32-19.85-8.41-29.73-12.45-7.84-3.21-13.43-4.71-19.05-3.22.49.65,1,1.3,1.52,1.97,3.59,4.64,7.65,9.9,10.53,17.24,1.14,2.92.56,6.24-1.51,8.59-2.07,2.36-5.29,3.36-8.33,2.6-11.23-2.81-19.94-7.93-27.62-12.46l-2.1-1.24c-.41-.24-.89-.52-1.34-.78-3.06,2.99-9.09,5.96-14.41,2.74-1.88-1.14-5.69-4.4-4.29-11.55-.05-.03-.1-.05-.15-.08-16.81-9.43-32.86-8.86-49.07,1.74-10.89,7.12-21.91,14.53-32.57,21.7-4.82,3.24-9.64,6.49-14.48,9.72-1.39.93-3.02,1.42-4.66,1.42Zm117.32-31.1h0ZM37.54,200.47c2.9,5.02,4.33,10.28,5.6,14.99.33,1.23.66,2.45,1.02,3.67,14.17,48.25,38.75,76.01,77.36,87.38,2.85.84,11.92,4.46,9.02,15.85l-.09.34c-1.3,6.4-3.26,11.47-5.97,15.49-4.94,7.34-10.07,14.68-15.03,21.78-3.01,4.3-6.06,8.67-9.09,13.07,6.28-4.21,12.63-8.42,18.94-12.55,21.63-14.14,43.98-14.92,66.45-2.33,3.41,1.91,5.9,4.04,7.46,6.38,5.37-1.05,10.05,1.7,13.03,3.46l.67.39c-.89-1.9-1.6-4.53-.79-7.65.88-3.41,3.3-6.18,7.2-8.21,14.21-7.44,26.72-3.43,37.33.91,8.28,3.39,16.35,6.79,24.72,10.33-.06-2.47.97-4.85,2.84-6.49,2.05-1.8,4.85-2.5,7.5-1.86,15.45,3.71,25.63,2.68,34.03-3.48,8.64-6.33,13.85-15.1,13.93-23.45.07-6.97-3.43-13.57-10.16-19.16-9.83,6.65-18.51,8.96-26.48,7.04-11.19-2.69-17.93-13.2-22.56-22.06-1.37-2.63-1.26-5.78.31-8.3,1.56-2.52,4.26-4.05,7.3-3.96,1.4.03,2.78.09,4.15.16,5.18.24,9.27.43,13.11-1.29,16.22-7.29,24.29-32.66,19.29-47.55-4.13-12.29-2.55-22.41,4.98-31.87,2.8-3.52,5.3-7.35,7.95-11.4,1.38-2.12,2.77-4.24,4.2-6.32l.44-.65c2.47-3.63,9.02-13.25,22.64-4.18,8.71,5.81,12.49,4.44,17.65-.82,2.97-3.02,6.13-8.06-.55-16.87-8.65-11.4-10.34-23.65-5.31-38.53h0c2.56-7.57,4.01-15.62,4.18-23.28.4-18.07-6.38-32.65-20.67-44.29-1.11,5.33-2.19,10.49-3.37,15.73-.35,1.57-.61,3.54-.89,5.64-.95,7.18-2.02,15.31-8.59,19.06-6.37,3.64-13.83,2.96-20.41,2.36-2.31-.21-4.49-.41-6.41-.41-.33,0-.68-.01-1.02-.03-17.38,3.85-24.01-10.5-26.22-15.26-9.69-20.93-23.02-34.09-40.77-40.23-17.82-6.16-37.65-5.28-60.62,2.72-7.51,2.61-16.69,4.53-27.8-1.04-13.43-6.72-28.98-9.38-46.22-7.92-6.67.57-7.02,1.76-7.51,3.42-.57,1.94-1.02,3.47,3.36,6.86,4.61,3.57,9.27,7.08,14.13,10.75l6.46,4.88c2.27,1.72,3.51,4.48,3.3,7.32-.22,2.84-1.86,5.38-4.37,6.74-9.88,5.34-19.3,11.52-30.54,20.03-23.93,18.11-38.77,37.6-46.71,61.32-1.38,4.14-1.94,8.87-2.53,13.89-1.13,9.62-2.38,20.34-9.87,29.47Zm159.96,150.41c-2.46,0-4.85-1.08-6.47-3.05-6.36-7.72-11.23-14.8-14.31-24.25-1-3.08-.14-6.47,2.22-8.7,2.36-2.22,5.79-2.89,8.81-1.7.42.09,2.09-.15,3.19-.29,3.91-.52,14.29-1.89,18.39,8.86,2.12,5.56-.06,10.62-1.65,14.32-.96,2.24-1.88,4.36-1.81,6.12.14,3.59-2.03,6.88-5.4,8.16-.97.37-1.98.55-2.98.55Zm-5.35-67.28c-5.15,0-9.25-.75-12.7-3.94-5.38-4.98-5.54-12.25-5.89-28.19-.06-2.63,1.12-5.13,3.19-6.76,2.07-1.63,4.78-2.19,7.32-1.53l.92.24c9.87,2.58,24.78,6.47,27.12,24.64l.05.36c.39,3.02,1.05,8.06-2.82,11.91-2.49,2.47-5.94,3.49-10.27,3-.03,0-.05,0-.06,0-2.48.14-4.76.26-6.87.26Zm6.35-.34h0s.02,0,.02,0c0,0-.02,0-.02,0Zm-7.39-16.43c.92.03,2.16,0,3.49-.06-.73-1.62-1.93-2.79-3.88-3.81.1,1.59.23,2.92.39,3.88Zm82.52,12.11c-.06,0-.12,0-.19,0-2.64-.06-5.1-1.36-6.63-3.5-1.95-2.73-2.41-5.43-2.71-7.22-.05-.28-.11-.64-.16-.87-4.44-6.05-3.87-10.95-2.6-14.01,2-4.81,6.67-7.74,13.86-8.71,1.46-.2,8.95-.91,12.84,4.43,3.36,4.62,2.5,12.5-1.77,16.21,0,0,0,0,0,0-.75.65-1.43,2.11-2.21,3.8-.91,1.95-2.03,4.38-3.84,6.68-1.59,2.03-4.02,3.21-6.59,3.21Zm1.66-26.35s0,0-.01.01c0,0,0,0,.01-.01h0Zm-150.68,16.84c-1.35,0-2.7-.33-3.93-.98-22.71-12.06-37.18-37.23-38.7-67.34-1.71-33.82,13.19-66.38,37.97-82.96,2.58-1.72,5.89-1.88,8.61-.43,2.73,1.46,4.43,4.3,4.43,7.39v135.92c0,2.94-1.54,5.67-4.06,7.18-1.33.8-2.82,1.2-4.32,1.2Zm-8.38-125.43c-11.96,14.51-18.58,35.02-17.51,56.27.9,17.85,7.23,33.4,17.51,44.05v-100.31Zm83.14,68.56c-.36,0-.75-.02-1.15-.06-8.7-.95-15.66-6.05-18.11-8.61-7.8-8.13-7.37-19.03-6.58-38.82.32-8.16,3.91-11.52,6.87-12.91,2.56-1.2,6.75-1.91,12.16,1.52.23.15.34.18.34.18.57-.04,2.71-1.13,4.12-1.85l.88-.45c2.6-1.32,5.69-1.19,8.17.34,2.48,1.52,3.99,4.23,3.99,7.14v44.67c0,4.03-2.87,7.5-6.84,8.24-.2.04-.37.09-.53.13-.75.19-1.89.47-3.31.47Zm-9.27-42.14c-.44,11.91-.44,19.21,2.11,21.86.17.16.55.47,1.08.84v-22.5c-1.04.03-2.1-.02-3.19-.2Zm117.53,7.7c-1.43,0-2.86-.36-4.15-1.1-3.01-1.72-4.65-5.11-4.13-8.54,2.57-16.98,13.74-23.75,22.71-29.19.83-.5,1.66-1,2.48-1.51,2.75-1.71,5.9-2.22,8.83-1.44,4.93,1.31,7.21,5.51,8.06,7.09.25.47.52.95.8,1.44,2.05,3.67,4.61,8.25,4.7,13.58.05,3.07-1.15,5.83-3.39,7.76-3.88,3.34-8.77,2.52-11.39,2.09-.32-.05-.62-.11-.88-.14-5.64-.46-10.44,1.64-18.33,8.07-1.53,1.25-3.41,1.88-5.3,1.88Zm-91.01-78.24c-3.33,0-6.1-.98-8.24-2.93-3.67-3.34-3.71-7.73-3.73-10.36v-.31c-.07-5.52,2.28-8.52,4.26-10.06,4.31-3.37,9.15-2.09,11.75-1.41l.23.06c6.59,1.72,11.91,5.36,18.07,9.57,3.03,2.08,4.36,5.89,3.27,9.4-1.09,3.51-4.33,5.91-8.01,5.91-2.23,0-4.27-.03-6.19-.07-3.71-.06-6.92-.12-9.86.13h0c-.52.04-1.04.07-1.54.07Zm.82-8.56v.14s0-.14,0-.14c0,0,0,0,0,0Zm-.85-8.21l.76,7.34s.01,0,.02,0l-.62-7.33c-.05,0-.1,0-.15,0Z"/>
      <path class="cls-2" d="m76.78,423.21c-2.09,0-4.18-.27-6.2-.81-6.73-1.78-12.36-6.37-15.47-12.6-4.55-9.13-7.08-23.13,6.76-38.01.07-.07.13-.14.2-.21,6.71-10.28,13.75-20.37,20.57-30.13,2.74-3.93,5.51-7.88,8.23-11.83-37.69-17.95-63.3-51.27-77.99-101.3-.43-1.44-.82-2.9-1.22-4.37-.62-2.28-1.36-5.03-2.03-6.54-4.85-5.64-7.14-11.95-6.82-18.79.33-7.05,3.5-13.52,8.93-18.24,1.53-1.34,2.21-4.05,3.28-13.18.72-6.14,1.53-13.1,3.99-20.44,10.12-30.25,28.53-54.71,57.94-76.97,1.59-1.2,3.15-2.36,4.68-3.49-9.38-10.2-12.51-23.08-8.6-36.33,3.26-11.05,12.16-24.64,36.01-26.67,23.3-1.97,44.7,1.8,63.58,11.25.07.03.13.06.18.09.4-.09,1.13-.28,2.32-.69,30.15-10.49,56.97-11.39,81.98-2.74,25.09,8.68,44.57,26.75,57.96,53.73,1.23.01,2.43.06,3.59.13.09-.44.18-.88.28-1.32,1.41-6.3,2.75-12.76,4.04-19.01l1.8-8.67c1.61-7.66,6.84-14.09,14-17.22,7.16-3.13,15.43-2.6,22.13,1.4,31.14,18.64,47.21,46.27,46.46,79.91-.24,10.92-2.28,22.34-5.89,33.01-1.84,5.43-1.18,6.29.39,8.37,14.87,19.61,14.03,42.93-2.15,59.41-13.05,13.3-28.46,17.47-44.44,12.31-1.88,2.79-3.92,5.66-6.15,8.47.08.31.2.71.37,1.23,5.97,17.76,3.24,40.9-7.24,59.63,15.66,12.1,24.17,28.5,23.99,46.22-.19,18.85-10.12,36.86-27.26,49.42-8.04,5.89-17.08,9.63-26.99,11.17-2.01,4.27-5.25,7.93-9.37,10.43-6.61,4.01-14.81,4.61-21.94,1.6-4.01-1.69-7.98-3.37-11.94-5.04l-.92-.39c-4.84-2.05-9.54-4.04-14.21-6.01-.41,5.09-2.44,10.01-5.96,14.01-6.01,6.84-15.23,9.71-24.06,7.51-11.1-2.77-19.98-7.34-27.34-11.56-6.93,2.47-15.03,2.54-22.5-1.99-4.69-2.84-9.19-7.79-11.17-14.59-8.66-2.83-16.6-1.39-25.45,4.41-10.7,7-21.57,14.3-32.07,21.37l-.74.5c-4.69,3.15-9.39,6.31-14.1,9.46-4,2.67-8.65,4.09-13.46,4.09Zm6.67-27.55h.02-.02Zm119.81-57.9h.02-.02Zm78.49-39.88s.06,0,.09,0c-.03,0-.06,0-.09,0Zm35.95-227.57h0Zm11.59-4.5h0,0ZM172.4,14.71h0Zm34.33,212.7h0,0Z"/>
    </g>
  </g>
  <g>
    <path d="m381.75,159.41c-7.44-9.81-7.87-19.47-4.04-30.78,2.77-8.2,4.42-17.13,4.62-25.78.59-26.6-12.65-45.4-34.68-58.59-2.01,9.55-3.85,18.8-5.92,28.01-1.51,6.73-1.31,16.89-5.46,19.25-5.82,3.33-14.96.85-22.68.85-.74,0-1.51-.15-2.21.02-9.33,2.33-13.72-2.47-17.41-10.45-9.5-20.53-23.68-37.04-45.63-44.64-22.15-7.66-44.57-4.77-66.11,2.72-7.84,2.73-13.88,3.1-21.3-.61-15.88-7.95-33.12-10.27-50.68-8.78-6.05.51-12.57,1.7-14.84,9.4-2.12,7.17,1.09,11.86,6.27,15.87,6.64,5.14,13.37,10.16,20.66,15.68-11.73,6.34-21.81,13.3-31.62,20.72-22.68,17.17-40.29,37.53-49.6,65.35-4.91,14.66-.74,32.37-14.34,44.21-1.82,1.58.78,3.13,1.72,4.52,3.74,5.56,4.92,12.04,6.76,18.31,12.96,44.14,36.24,79.28,83.04,93.06,4.99,1.47,3.48,4.56,3.09,6.46-.88,4.32-2.27,8.88-4.71,12.49-11.77,17.48-24.26,34.47-35.73,52.14-2.34,3.61-8.33,6.72-5.03,13.34,15.76-10.54,31.34-21.15,47.12-31.47,18.77-12.27,37.97-13.13,57.76-2.03,3.28,1.84,6.02,3.67,4.8,7.13-2.66,7.54,2.94,4.31,4.21,2.94,4.38-4.71,7.07-2.81,11.91.03,7.99,4.69,16.19,9.76,26.91,12.44-3.62-9.24-9.66-14.85-14.02-21.55-1.14-1.75-2.93-4.05,1.74-6.5,10.8-5.66,20.41-2.78,30.27,1.25,14.13,5.78,28.16,11.81,42.64,17.91.57-6.76-5.7-9.55-6.36-15.54,14.67,3.53,28.62,4.16,40.94-4.87,19.36-14.19,25.63-39.48,2.55-57.12-2.9-2.22-4.06-2.29-7.16-.09-19.8,14.07-29.43,5.7-38.2-11.07,7.14.15,13.93,1.25,20.88-1.87,20.39-9.16,30-39.42,23.79-57.87-3.11-9.25-2.37-16.49,3.59-23.97,4.57-5.74,8.33-12.13,12.5-18.19,3.01-4.37,4.44-7.32,11.53-2.6,11.95,7.96,20.2,6.31,28.28-1.92,7.51-7.65,7.9-17.58.14-27.81Zm-257.98,104.86c-46.79-24.85-44.89-105.9,0-135.92v135.92Zm57.29-95.64c.05-1.23.3-4.83,2.05-5.65.92-.43,2.24-.17,4.11,1.02,4.85,3.07,8.76.73,13.6-1.72v44.67c-1.11.21-1.83.52-2.52.45-6.69-.73-11.94-4.98-13-6.09-5.33-5.56-4.97-14.6-4.25-32.68Zm15.59,177.09c-5.89-7.15-10.15-13.38-12.8-21.52,5.85,2.3,13.98-3.67,16.81,3.75,1.78,4.67-4.29,10.31-4,17.77Zm2.15-67.54c-.36-.05-.73-.01-1.09,0q-16.07.89-16.6-23.68c10.12,2.65,20.19,4.89,21.85,17.84.5,3.85,1.02,6.54-4.16,5.82Zm17.81-183.5c-4.53.38-4.39-2.12-4.43-5.27-.05-4.86,2.85-3.96,5.73-3.21,5.04,1.32,9.3,4.17,15.46,8.39-6.76,0-11.79-.32-16.76.1Zm63.33,167.47c-3.65,3.16-4.3,7.99-7.15,11.63-1.72-2.4-.79-5.34-2.77-7.97-4.74-6.27-.43-8.86,5.48-9.66,1.64-.22,4.18.02,4.93,1.05.76,1.05.49,4.1-.49,4.94Zm51.2-99.11c-9.19-.78-16.3,3.36-24.35,9.92,2.19-14.45,12.27-19.21,21.32-24.84,2.66-1.65,4.2.87,5.1,2.52,1.93,3.56,4.43,7.41,4.49,11.18.05,2.85-4.36,1.4-6.56,1.22Z"/>
    <path class="cls-3" d="m307.32,136.6c-1.29,5.28,4.98,4.2,6.45,8.11-13.36,6.74-17.07,20.85-21.43,33.22-5.55,15.74-15.88,24.82-30.04,31.2-5.3,2.39-10.16,3.15-12.49-3.95,0-.59-.01-1.19-.02-1.78-3.15-13.53,7.15-22.95,10.65-34.45,4.68-15.41,10.12-30.6,3.56-46.8-1-4.37-3.66-8.02-5.34-12.1-4.02-15.34-16.47-23.55-29.01-29.4-16.97-7.93-35.15-13.52-54.83-8.48-4.72,1.21-4.88,2.88-4.63,6.34,3.01,42.78,2.11,85.63,2.12,128.46,0,3.94,1.31,4.33,4.82,5.05,26.08,5.34,50.03,14.62,69.12,34.62,13.2,13.83,15.86,32.07,23.55,48.19,7.36,15.44,18.68,29.54,35.83,27.76,4.49-.46,8.01-2.06,11.57-4.42,6.03-3.99,10.21-1.35,11.36,4.79,1.69,9.12,2.87,18.37-4.71,26.22-7.98,8.27-17.46,12.57-28.66,10.41-18.04-3.47-28.17-14.89-34.71-32.3-6.95-18.51-18.13-35.25-30.95-50.63-10.02-12.02-21.6-22.03-35.76-28.89-1.23-.6-2.49-1.14-3.76-1.65-16.18-6.46-17.61-5.51-17.61,11.72,0,4.42,0,8.84,0,13.26q0,14.65-14.67,13.72c-17.06-1.08-25.78-9.6-25.03-26.4,2.57-57.91,1.74-115.85,2.34-173.77.12-11.48-1.26-20.62-12.67-25.77-2.2-.99-4.55-2.97-5.77-4.37-3.29-3.8-12.5-3.63-10.07-10.54,1.93-5.5,8.84-2.06,13.42-2.29,15.43-.76,30.12,1.8,43.27,10.89,3.23,2.23,7.04,2.89,11.86,1.08,16.12-6.08,32.55-10.84,50.3-10.08,23.9,1.02,40.47,12.74,53.34,32.05,11.47,17.2,16.31,37.05,23.97,55.76,1.04,2.54,1.97,4.49,4.64,5.27l-.03-.03Z"/>
    <path class="cls-3" d="m129.41,78.85c.58,1.2.85,1.52.87,1.85.84,17.32,3.87,35.61-18.71,42.65-28.48,28.27-38.8,62.44-28.91,100.98,9.29,36.18,34.81,55.86,71.31,62.99,14.24,2.78,28.25,1.23,42.34,1.71,5.65.19,7.25,1.32,7.24,7.18-.03,18.03.3,18.87-18.14,19.37-34.28.93-67.63-2.33-96.68-23.95-17.18-12.79-27.19-30.24-35.8-48.93-5.33-11.57-6.22-24.78-12.72-35.93-3.42-5.85,3.35-7.86,4.31-12.31,2.21-10.2,3.32-20.59,5.85-30.79,6.38-25.75,22.9-43.94,42-60.08,11.1-9.37,23.15-17.97,37.05-24.74Z"/>
    <path class="cls-3" d="m258.65,110.04c1.14,3.84,4.85,6.66,4.45,11.12.31,7.57,1.99,16.16-10.75,13.34-2.87-.63-4.81.42-4.76,4.03.3,21.88-.33,43.76.43,65.64.01.4,1.14.72,1.82,1.03l-.03-.03c-1.63,8.71,1.12,13.12,10.71,11.13,1.77-.37,3.72-.32,5.51-.01,15.15,2.62,23.8-2.8,30.8-17.52,5.92-12.47,17.9-22.01,32.71-25.94,3.24-.86,5.24-.94,7.67,1.33,3.53,3.3-.51,5.83-1.43,7.38-5.37,9.04-11.76,17.46-17.46,26.31-5.07,7.87-4.31,15.92-2.81,25.22,3.15,19.54,1.14,41.11-20.28,49.97-3.23,1.33-6.06,1.55-9.19,1.77-6.61.47-6.51-2.4-3.68-7.04,3.26-5.33,7.31-10.55,8.91-16.39.84-3.07,5.89-7.14.33-11.33-4.46-3.36-9.56-6.41-14.37-4.43-13.98,5.78-24.62,4.05-34.68-8.35-5.24-6.46-13.75-11.84-21.78-14.01-8.24-2.22-8.63-6.26-8.6-12.64.13-23.21.09-46.43.03-69.64-.03-12.04,2.76-24.82-10.34-33.59.58-.68,1.17-1.35,1.75-2.03,15.97,0,31.94-.19,47.9.21,2.42.06,4.76,2.9,7.14,4.46Z"/>
    <path class="cls-3" d="m307.34,136.63c-1.88-11.27-7.35-21.34-11.46-33.19,11.91,0,23.35-1.34,34.32.34,13.47,2.06,18.13-5.06,18.95-15.67.65-8.39,4.12-15.83,4.99-24.77,17.22,14.16,20.36,31.83,15.82,51.51-4.45,19.31-10.84,38.63,7.04,54.98,1.7,1.56,1.01,2.84-.07,4.66-2.36,3.97-3.88,8.32-9.67,8.66-5.9.34-9.25-1.99-11.37-7.53-3.3-8.63-7.44-16.94-10.85-25.54-3.46-8.73-7.19-15.98-18.99-13.66-6.02,1.18-12.47.2-18.73.19l.03.03Z"/>
    <path class="cls-3" d="m212.5,266.93c18.46,17.29,35.55,32.09,32.92,58.15-.84,8.38,6.58,12.83,10.08,19.05,2.48,4.4,4.47,8.97,8.8,15.12-21.48-7.12-40.91-16.24-61.82-1.64,14.7-28.23,8.56-58.35,10.01-90.68Z"/>
    <path class="cls-3" d="m174.61,107.84c0-8.44.62-16.93-.19-25.29-.71-7.35,2.21-8.53,8.52-8,6.18.52,13.76-2.18,18.35.54,6.04,3.58-1.15,10.53-.51,16.51,1.3,11.95.21,23.96,4.55,35.8,2.21,6.02.83,13.7-2.78,19.55-3.02,4.89-7.51,9.43-14.4,7.4-8.78-2.58-12.6-9.71-13.32-17.92-.83-9.46-.19-19.06-.19-28.59-.01,0-.03,0-.04,0Z"/>
    <path class="cls-3" d="m197.38,363.41c-15.98-4.9-28.97-12.75-44.65-12.52-15.42.22-27.76,7.76-44.01,15.53,11.85-15.35,20.14-29.01,23.65-44.71,1.08-4.82,3.91-4.44,5.93-3.52,6.61,2.99,13.46,2.29,20.15,1.88,8.32-.51,14.27.74,16.69,10.29,3.23,12.74,14.49,20.51,22.24,33.06Z"/>
  </g>
</svg>